<svg id="Layer_1" data-name="Layer 1" xmlns="http://www.w3.org/2000/svg" viewBox="0 0 175 175"><defs><style>.cls-1{fill:#18191c;}.cls-2{fill:#1e2023;}.cls-3{fill:none;opacity:0.25;}</style></defs><rect class="cls-1" x="-46.86" y="-28.69" width="316.9" height="289.03"/><polyline class="cls-1" points="-5.83 164.08 -9.7 315.56 32.89 314.08 70.25 163.48 107.61 12.88 144.97 -137.72 -1.17 -139.19"/><polyline class="cls-2" points="176.17 314.19 176.17 -137.72 144.97 -137.72 107.61 12.88 70.25 163.48 32.89 314.08"/><path d="M135.18,92.47q-5.77-7.34-19.93-14.39L95.08,68.39l-3.7-1.78Q84.3,63.19,82,59.76c-1.55-2.28-2.32-5.36-2.32-9.26q0-8,5.85-10.67a13.47,13.47,0,0,1,5.24-1.2,9.21,9.21,0,0,1,7.16,3,11.81,11.81,0,0,1,2.57,5,18.5,18.5,0,0,1,.55,3.43v7.26h35.69V54.15q0-20-11-30.95a35.93,35.93,0,0,0-17.13-9.32,61.14,61.14,0,0,0-14.76-1.66,93.54,93.54,0,0,0-14.48,1.2q-18.32,2.82-27.67,14T42.35,57.51q0,27.57,25.2,39.05l18.51,8.21,6.9,3.06a14.15,14.15,0,0,1,7.25,5.73,17.64,17.64,0,0,1,2.22,9.17q0,12.46-10.28,14.49a24.26,24.26,0,0,1-3.23.4q-6.72,0-9.57-5.81-2.11-4.29-2.12-11.77v-3.79H41.34l-.4,3.81q0,20.69,11.39,31.72,7.32,7.09,19.68,9.63a76.32,76.32,0,0,0,15.3,1.41q5.64,0,12.1-.6,18.15-2,27.72-10.07T139.93,128q.81-4.83.91-6.44c.06-1.07.1-2.28.1-3.63V112.7Q140.94,99.82,135.18,92.47Z"/><path class="cls-2" d="M78.35,130.81,71,160.41q-12.36-2.53-19.68-9.63-11.38-11-11.39-31.72l.4-3.81H76.23V119Q76.23,126.51,78.35,130.81Z"/><path class="cls-2" d="M107.61,12.88,99.47,45.69a11.81,11.81,0,0,0-2.57-5,9.21,9.21,0,0,0-7.16-3,13.47,13.47,0,0,0-5.24,1.2q-5.85,2.63-5.85,10.67c0,3.9.77,7,2.32,9.26s4.69,4.57,9.41,6.85l3.7,1.78-9,36.38L66.55,95.56q-25.2-11.48-25.2-39.05,0-18.93,9.35-30.09t27.67-14a93.54,93.54,0,0,1,14.48-1.2A61.14,61.14,0,0,1,107.61,12.88Z"/><path class="cls-1" d="M139.94,111.7v5.23c0,1.35,0,2.56-.1,3.63s-.37,3.22-.91,6.44q-3.23,16.09-12.8,24.15T98.41,161.22q-6.47.6-12.1.6A76.32,76.32,0,0,1,71,160.41l7.34-29.6q2.85,5.81,9.57,5.81a24.26,24.26,0,0,0,3.23-.4q10.29-2,10.28-14.49a17.64,17.64,0,0,0-2.22-9.17A14.15,14.15,0,0,0,92,106.83l-6.9-3.06,9-36.38,20.17,9.69q14.16,7,19.93,14.39T139.94,111.7Z"/><path class="cls-1" d="M135.71,53.15v3.23H100V49.12a18.5,18.5,0,0,0-.55-3.43l8.14-32.81a35.93,35.93,0,0,1,17.13,9.32Q135.71,33.2,135.71,53.15Z"/><rect class="cls-3" width="175" height="175"/></svg>