<svg id="img" fill="currentColor" xmlns="http://www.w3.org/2000/svg" viewBox="0 0 24 24"><path  d="M 5 0 C 3.8969727 0 3 0.8969727 3 2 L 3 22 C 3 23.103027 3.8969727 24 5 24 L 19 24 C 20.103027 24 21 23.103027 21 22 L 21 5.5 C 21 5.3671875 20.947266 5.2402344 20.853516 5.1464844 L 15.853516 0.14648438 C 15.759766 0.052734375 15.632812 0 15.5 0 L 5 0 z M 5 1 L 15 1 L 15 4 C 15 5.1030273 15.896973 6 17 6 L 20 6 L 20 22 C 20 22.55127 19.55127 23 19 23 L 5 23 C 4.4487305 23 4 22.55127 4 22 L 4 2 C 4 1.4487305 4.4487305 1 5 1 z M 16 1.7070312 L 19.292969 5 L 17 5 C 16.44873 5 16 4.5512695 16 4 L 16 1.7070312 z M 7.5 10 C 7.2236328 10 7 10.223633 7 10.5 C 7 10.776367 7.2236328 11 7.5 11 L 16.5 11 C 16.776367 11 17 10.776367 17 10.5 C 17 10.223633 16.776367 10 16.5 10 L 7.5 10 z M 7.5 13 C 7.2236328 13 7 13.223633 7 13.5 C 7 13.776367 7.2236328 14 7.5 14 L 16.5 14 C 16.776367 14 17 13.776367 17 13.5 C 17 13.223633 16.776367 13 16.5 13 L 7.5 13 z M 7.5 16 C 7.2236328 16 7 16.223633 7 16.5 C 7 16.776367 7.2236328 17 7.5 17 L 16.5 17 C 16.776367 17 17 16.776367 17 16.5 C 17 16.223633 16.776367 16 16.5 16 L 7.5 16 z M 7.5 19 C 7.2236328 19 7 19.223633 7 19.5 C 7 19.776367 7.2236328 20 7.5 20 L 12.5 20 C 12.776367 20 13 19.776367 13 19.5 C 13 19.223633 12.776367 19 12.5 19 L 7.5 19 z"></path></svg>